<svg xmlns="http://www.w3.org/2000/svg" xmlns:xlink="http://www.w3.org/1999/xlink" width="150" zoomAndPan="magnify" viewBox="0 0 112.5 56.249996" height="75" preserveAspectRatio="xMidYMid meet" version="1.2"><defs><clipPath id="c07c179a35"><path d="M 0.492188 20 L 19 20 L 19 41 L 0.492188 41 Z M 0.492188 20 "/></clipPath><clipPath id="29656af662"><path d="M 105 35 L 111.511719 35 L 111.511719 41 L 105 41 Z M 105 35 "/></clipPath></defs><g id="b9b39f1178"><g clip-rule="nonzero" clip-path="url(#c07c179a35)"><g style="fill:#000000;fill-opacity:1;"><g transform="translate(8.212307, 42.010599)"><path style="stroke:none" d="M 5.5 -11.6875 C 5.882812 -12 6.257812 -12.144531 6.625 -12.125 C 6.988281 -12.113281 7.320312 -11.984375 7.625 -11.734375 C 7.925781 -11.484375 8.144531 -11.171875 8.28125 -10.796875 C 8.425781 -10.421875 8.457031 -10.03125 8.375 -9.625 C 8.300781 -9.226562 8.078125 -8.878906 7.703125 -8.578125 C 6.703125 -7.753906 5.757812 -6.882812 4.875 -5.96875 C 4 -5.050781 3.160156 -4.085938 2.359375 -3.078125 C 2.117188 -2.785156 1.796875 -2.582031 1.390625 -2.46875 C 0.992188 -2.351562 0.597656 -2.351562 0.203125 -2.46875 C -0.179688 -2.582031 -0.484375 -2.820312 -0.703125 -3.1875 C -1.691406 -4.925781 -2.679688 -6.660156 -3.671875 -8.390625 C -4.660156 -10.128906 -5.648438 -11.867188 -6.640625 -13.609375 C -6.878906 -14.023438 -6.96875 -14.4375 -6.90625 -14.84375 C -6.84375 -15.257812 -6.675781 -15.613281 -6.40625 -15.90625 C -6.144531 -16.207031 -5.835938 -16.425781 -5.484375 -16.5625 C -5.140625 -16.695312 -4.789062 -16.710938 -4.4375 -16.609375 C -4.082031 -16.515625 -3.78125 -16.25 -3.53125 -15.8125 C -2.738281 -14.445312 -1.953125 -13.078125 -1.171875 -11.703125 C -0.390625 -10.328125 0.394531 -8.957031 1.1875 -7.59375 C 2.507812 -9.039062 3.945312 -10.40625 5.5 -11.6875 Z M 5.5 -11.6875 "/></g></g></g><g style="fill:#000000;fill-opacity:1;"><g transform="translate(18.645597, 34.337288)"><path style="stroke:none" d="M 6.21875 -20.125 C 6.882812 -19.707031 7.457031 -19.15625 7.9375 -18.46875 C 8.425781 -17.78125 8.84375 -17.050781 9.1875 -16.28125 C 9.53125 -15.519531 9.800781 -14.78125 10 -14.0625 C 10.320312 -12.976562 10.457031 -11.867188 10.40625 -10.734375 C 10.351562 -9.597656 10.082031 -8.515625 9.59375 -7.484375 C 9.113281 -6.484375 8.429688 -5.597656 7.546875 -4.828125 C 6.671875 -4.066406 5.675781 -3.613281 4.5625 -3.46875 C 3.820312 -3.363281 3.101562 -3.425781 2.40625 -3.65625 C 1.71875 -3.894531 1.070312 -4.238281 0.46875 -4.6875 C -0.125 -5.132812 -0.644531 -5.625 -1.09375 -6.15625 C -1.59375 -6.757812 -2.0625 -7.492188 -2.5 -8.359375 C -2.945312 -9.222656 -3.304688 -10.15625 -3.578125 -11.15625 C -3.859375 -12.15625 -4.007812 -13.132812 -4.03125 -14.09375 C -4.0625 -15.0625 -3.898438 -15.945312 -3.546875 -16.75 C -3.222656 -17.675781 -2.691406 -18.472656 -1.953125 -19.140625 C -1.210938 -19.804688 -0.367188 -20.304688 0.578125 -20.640625 C 1.523438 -20.984375 2.492188 -21.117188 3.484375 -21.046875 C 4.472656 -20.972656 5.382812 -20.664062 6.21875 -20.125 Z M 6.21875 -9.171875 C 6.519531 -9.910156 6.644531 -10.664062 6.59375 -11.4375 C 6.539062 -12.207031 6.378906 -12.960938 6.109375 -13.703125 C 5.835938 -14.453125 5.492188 -15.148438 5.078125 -15.796875 C 4.671875 -16.421875 4.144531 -16.84375 3.5 -17.0625 C 2.851562 -17.289062 2.175781 -17.222656 1.46875 -16.859375 C 1.070312 -16.671875 0.726562 -16.390625 0.4375 -16.015625 C 0.15625 -15.648438 -0.03125 -15.253906 -0.125 -14.828125 C -0.21875 -14.304688 -0.203125 -13.742188 -0.078125 -13.140625 C 0.046875 -12.546875 0.191406 -12.003906 0.359375 -11.515625 C 0.703125 -10.410156 1.234375 -9.414062 1.953125 -8.53125 C 2.171875 -8.28125 2.410156 -8.035156 2.671875 -7.796875 C 2.929688 -7.566406 3.226562 -7.421875 3.5625 -7.359375 C 4.101562 -7.253906 4.609375 -7.363281 5.078125 -7.6875 C 5.554688 -8.019531 5.910156 -8.4375 6.140625 -8.9375 C 6.171875 -9 6.195312 -9.078125 6.21875 -9.171875 Z M 6.21875 -9.171875 "/></g></g><g style="fill:#000000;fill-opacity:1;"><g transform="translate(32.261842, 27.902957)"><path style="stroke:none" d="M 9.9375 -14.140625 C 10.414062 -12.523438 10.890625 -10.898438 11.359375 -9.265625 C 11.828125 -7.628906 12.300781 -5.992188 12.78125 -4.359375 C 12.914062 -3.890625 12.894531 -3.476562 12.71875 -3.125 C 12.550781 -2.769531 12.300781 -2.5 11.96875 -2.3125 C 11.632812 -2.132812 11.269531 -2.039062 10.875 -2.03125 C 10.476562 -2.019531 10.113281 -2.125 9.78125 -2.34375 C 9.457031 -2.570312 9.222656 -2.921875 9.078125 -3.390625 C 8.929688 -3.867188 8.789062 -4.347656 8.65625 -4.828125 C 8.519531 -5.316406 8.378906 -5.804688 8.234375 -6.296875 L 4.484375 -5.46875 C 4.515625 -4.8125 4.550781 -4.160156 4.59375 -3.515625 C 4.644531 -2.867188 4.703125 -2.21875 4.765625 -1.5625 C 4.804688 -1.0625 4.710938 -0.664062 4.484375 -0.375 C 4.253906 -0.09375 3.945312 0.09375 3.5625 0.1875 C 3.1875 0.28125 2.800781 0.273438 2.40625 0.171875 C 2.019531 0.0664062 1.6875 -0.128906 1.40625 -0.421875 C 1.125 -0.722656 0.957031 -1.117188 0.90625 -1.609375 C 0.789062 -3.304688 0.707031 -4.988281 0.65625 -6.65625 C 0.613281 -8.332031 0.734375 -10.007812 1.015625 -11.6875 C 1.160156 -12.507812 1.375 -13.414062 1.65625 -14.40625 C 1.9375 -15.394531 2.304688 -16.332031 2.765625 -17.21875 C 3.234375 -18.101562 3.820312 -18.8125 4.53125 -19.34375 C 5.175781 -19.84375 5.753906 -20.054688 6.265625 -19.984375 C 6.785156 -19.910156 7.238281 -19.65625 7.625 -19.21875 C 8.019531 -18.78125 8.367188 -18.242188 8.671875 -17.609375 C 8.984375 -16.972656 9.238281 -16.335938 9.4375 -15.703125 C 9.644531 -15.078125 9.8125 -14.554688 9.9375 -14.140625 Z M 4.546875 -9.390625 C 4.992188 -9.484375 5.429688 -9.582031 5.859375 -9.6875 C 6.296875 -9.789062 6.726562 -9.890625 7.15625 -9.984375 C 7 -10.515625 6.84375 -11.046875 6.6875 -11.578125 C 6.539062 -12.109375 6.394531 -12.640625 6.25 -13.171875 C 6.175781 -13.367188 6.101562 -13.585938 6.03125 -13.828125 C 5.96875 -14.066406 5.90625 -14.3125 5.84375 -14.5625 C 5.644531 -14.164062 5.492188 -13.789062 5.390625 -13.4375 C 5.191406 -12.851562 5.023438 -12.257812 4.890625 -11.65625 C 4.753906 -11.050781 4.648438 -10.445312 4.578125 -9.84375 C 4.585938 -9.78125 4.585938 -9.707031 4.578125 -9.625 C 4.578125 -9.539062 4.566406 -9.460938 4.546875 -9.390625 Z M 4.546875 -9.390625 "/></g></g><g style="fill:#000000;fill-opacity:1;"><g transform="translate(45.168657, 24.386929)"><path style="stroke:none" d="M 9.65625 -16.65625 C 10.59375 -15.957031 11.34375 -15.085938 11.90625 -14.046875 C 12.46875 -13.015625 12.734375 -11.898438 12.703125 -10.703125 C 12.671875 -9.710938 12.429688 -8.765625 11.984375 -7.859375 C 11.535156 -6.960938 10.96875 -6.171875 10.28125 -5.484375 C 9.507812 -4.691406 8.578125 -4.03125 7.484375 -3.5 C 6.398438 -2.976562 5.359375 -2.503906 4.359375 -2.078125 C 4.078125 -1.960938 3.789062 -1.859375 3.5 -1.765625 C 3.207031 -1.679688 2.910156 -1.644531 2.609375 -1.65625 C 2.210938 -1.675781 1.847656 -1.835938 1.515625 -2.140625 C 1.191406 -2.441406 1.023438 -2.796875 1.015625 -3.203125 C 0.742188 -7.828125 0.582031 -12.46875 0.53125 -17.125 C 0.519531 -17.644531 0.65625 -18.023438 0.9375 -18.265625 C 1.226562 -18.503906 1.59375 -18.644531 2.03125 -18.6875 C 2.46875 -18.738281 2.894531 -18.742188 3.3125 -18.703125 C 3.550781 -18.691406 3.769531 -18.679688 3.96875 -18.671875 C 4.976562 -18.546875 5.96875 -18.335938 6.9375 -18.046875 C 7.90625 -17.765625 8.8125 -17.300781 9.65625 -16.65625 Z M 8.78125 -10.171875 C 8.96875 -10.867188 8.953125 -11.488281 8.734375 -12.03125 C 8.523438 -12.570312 8.191406 -13.03125 7.734375 -13.40625 C 7.285156 -13.78125 6.757812 -14.078125 6.15625 -14.296875 C 5.5625 -14.515625 4.957031 -14.664062 4.34375 -14.75 C 4.414062 -11.96875 4.515625 -9.195312 4.640625 -6.4375 C 5.265625 -6.695312 5.851562 -6.976562 6.40625 -7.28125 C 6.957031 -7.59375 7.445312 -7.972656 7.875 -8.421875 C 8.300781 -8.878906 8.601562 -9.460938 8.78125 -10.171875 Z M 8.78125 -10.171875 "/></g></g><g style="fill:#000000;fill-opacity:1;"><g transform="translate(58.963747, 23.384725)"><path style="stroke:none" d="M 3.140625 -15.578125 C 3.210938 -16.054688 3.394531 -16.429688 3.6875 -16.703125 C 3.988281 -16.972656 4.335938 -17.148438 4.734375 -17.234375 C 5.128906 -17.328125 5.507812 -17.316406 5.875 -17.203125 C 6.25 -17.097656 6.539062 -16.890625 6.75 -16.578125 C 6.96875 -16.273438 7.039062 -15.882812 6.96875 -15.40625 C 6.269531 -10.820312 5.671875 -6.226562 5.171875 -1.625 C 5.117188 -1.132812 4.953125 -0.75 4.671875 -0.46875 C 4.390625 -0.1875 4.050781 -0.0078125 3.65625 0.0625 C 3.269531 0.144531 2.894531 0.128906 2.53125 0.015625 C 2.164062 -0.0859375 1.863281 -0.289062 1.625 -0.59375 C 1.382812 -0.90625 1.296875 -1.304688 1.359375 -1.796875 C 1.847656 -6.398438 2.441406 -10.992188 3.140625 -15.578125 Z M 3.140625 -15.578125 "/></g></g><g style="fill:#000000;fill-opacity:1;"><g transform="translate(65.4372, 23.304137)"><path style="stroke:none" d="M 13.84375 -13.140625 C 14.007812 -13.609375 14.25 -13.921875 14.5625 -14.078125 C 14.882812 -14.242188 15.234375 -14.289062 15.609375 -14.21875 C 15.992188 -14.144531 16.34375 -13.976562 16.65625 -13.71875 C 16.96875 -13.457031 17.191406 -13.128906 17.328125 -12.734375 C 17.460938 -12.347656 17.453125 -11.929688 17.296875 -11.484375 C 15.753906 -6.984375 14.050781 -2.554688 12.1875 1.796875 C 12.039062 2.148438 11.800781 2.414062 11.46875 2.59375 C 11.132812 2.769531 10.765625 2.851562 10.359375 2.84375 C 9.960938 2.832031 9.601562 2.722656 9.28125 2.515625 C 8.96875 2.304688 8.769531 2.003906 8.6875 1.609375 C 8.457031 0.617188 8.226562 -0.367188 8 -1.359375 C 7.769531 -2.347656 7.539062 -3.328125 7.3125 -4.296875 C 6.863281 -3.265625 6.414062 -2.21875 5.96875 -1.15625 C 5.53125 -0.101562 5.113281 0.941406 4.71875 1.984375 C 4.539062 2.460938 4.28125 2.78125 3.9375 2.9375 C 3.601562 3.09375 3.25 3.128906 2.875 3.046875 C 2.5 2.972656 2.15625 2.8125 1.84375 2.5625 C 1.539062 2.3125 1.328125 1.988281 1.203125 1.59375 C 1.078125 1.207031 1.109375 0.78125 1.296875 0.3125 C 2.765625 -3.53125 4.394531 -7.300781 6.1875 -11 C 6.351562 -11.351562 6.609375 -11.613281 6.953125 -11.78125 C 7.296875 -11.957031 7.660156 -12.046875 8.046875 -12.046875 C 8.429688 -12.046875 8.78125 -11.945312 9.09375 -11.75 C 9.40625 -11.550781 9.613281 -11.25 9.71875 -10.84375 L 10.953125 -5.328125 C 11.472656 -6.617188 11.96875 -7.914062 12.4375 -9.21875 C 12.914062 -10.53125 13.382812 -11.835938 13.84375 -13.140625 Z M 13.84375 -13.140625 "/></g></g><g style="fill:#000000;fill-opacity:1;"><g transform="translate(79.948764, 25.845097)"><path style="stroke:none" d="M 14.65625 -5.703125 C 15.71875 -5.296875 16.429688 -4.71875 16.796875 -3.96875 C 17.171875 -3.226562 17.117188 -2.320312 16.640625 -1.25 C 16.234375 -0.3125 15.640625 0.5 14.859375 1.1875 C 14.078125 1.875 13.191406 2.332031 12.203125 2.5625 C 11.097656 2.832031 10.035156 2.785156 9.015625 2.421875 C 8.003906 2.066406 7.070312 1.5625 6.21875 0.90625 C 5.175781 0.113281 4.441406 -0.769531 4.015625 -1.75 C 3.597656 -2.726562 3.441406 -3.742188 3.546875 -4.796875 C 3.660156 -5.847656 3.972656 -6.875 4.484375 -7.875 C 4.992188 -8.875 5.660156 -9.804688 6.484375 -10.671875 C 7.304688 -11.546875 8.21875 -12.285156 9.21875 -12.890625 C 10.21875 -13.503906 11.265625 -13.941406 12.359375 -14.203125 C 13.460938 -14.460938 14.550781 -14.484375 15.625 -14.265625 C 16.695312 -14.046875 17.691406 -13.535156 18.609375 -12.734375 C 18.984375 -12.421875 19.207031 -12.0625 19.28125 -11.65625 C 19.351562 -11.257812 19.3125 -10.878906 19.15625 -10.515625 C 19 -10.148438 18.769531 -9.847656 18.46875 -9.609375 C 18.175781 -9.367188 17.835938 -9.242188 17.453125 -9.234375 C 17.078125 -9.222656 16.707031 -9.375 16.34375 -9.6875 C 15.6875 -10.238281 14.953125 -10.519531 14.140625 -10.53125 C 13.335938 -10.539062 12.523438 -10.347656 11.703125 -9.953125 C 10.878906 -9.566406 10.128906 -9.050781 9.453125 -8.40625 C 8.785156 -7.769531 8.253906 -7.066406 7.859375 -6.296875 C 7.472656 -5.523438 7.3125 -4.773438 7.375 -4.046875 C 7.40625 -3.609375 7.566406 -3.1875 7.859375 -2.78125 C 8.148438 -2.382812 8.515625 -2.039062 8.953125 -1.75 C 9.398438 -1.457031 9.859375 -1.257812 10.328125 -1.15625 C 10.804688 -1.050781 11.257812 -1.085938 11.6875 -1.265625 C 12 -1.421875 12.296875 -1.632812 12.578125 -1.90625 C 12.609375 -1.945312 12.640625 -2.003906 12.671875 -2.078125 C 12.710938 -2.148438 12.753906 -2.21875 12.796875 -2.28125 C 12.785156 -2.289062 12.765625 -2.296875 12.734375 -2.296875 C 12.710938 -2.304688 12.695312 -2.316406 12.6875 -2.328125 C 12.613281 -2.347656 12.550781 -2.367188 12.5 -2.390625 C 12.445312 -2.410156 12.390625 -2.4375 12.328125 -2.46875 C 11.953125 -2.289062 11.535156 -2.25 11.078125 -2.34375 C 10.617188 -2.4375 10.222656 -2.65625 9.890625 -3 C 9.554688 -3.34375 9.398438 -3.789062 9.421875 -4.34375 C 9.441406 -5.101562 9.640625 -5.640625 10.015625 -5.953125 C 10.390625 -6.273438 10.851562 -6.429688 11.40625 -6.421875 C 11.96875 -6.410156 12.539062 -6.328125 13.125 -6.171875 C 13.707031 -6.015625 14.21875 -5.859375 14.65625 -5.703125 Z M 14.65625 -5.703125 "/></g></g><g style="fill:#000000;fill-opacity:1;"><g transform="translate(94.042443, 31.613342)"><path style="stroke:none" d="M 6.140625 -1.03125 C 6.222656 -0.789062 6.242188 -0.546875 6.203125 -0.296875 C 6.160156 -0.046875 6.078125 0.1875 5.953125 0.40625 C 5.847656 0.625 5.6875 0.8125 5.46875 0.96875 C 5.25 1.132812 5.035156 1.253906 4.828125 1.328125 C 4.316406 1.484375 3.832031 1.429688 3.375 1.171875 L 3.078125 1.015625 C 2.648438 0.773438 2.347656 0.390625 2.171875 -0.140625 C 2.085938 -0.378906 2.066406 -0.628906 2.109375 -0.890625 C 2.160156 -1.148438 2.238281 -1.382812 2.34375 -1.59375 C 2.4375 -1.800781 2.585938 -1.988281 2.796875 -2.15625 C 3.015625 -2.320312 3.242188 -2.4375 3.484375 -2.5 C 3.992188 -2.644531 4.476562 -2.585938 4.9375 -2.328125 L 5.21875 -2.171875 C 5.664062 -1.929688 5.972656 -1.550781 6.140625 -1.03125 Z M 6.140625 -1.03125 "/></g></g><g style="fill:#000000;fill-opacity:1;"><g transform="translate(99.368112, 34.53421)"><path style="stroke:none" d="M 6.203125 -0.546875 C 6.265625 -0.304688 6.265625 -0.0625 6.203125 0.1875 C 6.140625 0.4375 6.039062 0.664062 5.90625 0.875 C 5.789062 1.082031 5.613281 1.257812 5.375 1.40625 C 5.144531 1.550781 4.921875 1.648438 4.703125 1.703125 C 4.179688 1.804688 3.703125 1.710938 3.265625 1.421875 L 2.984375 1.234375 C 2.578125 0.972656 2.304688 0.570312 2.171875 0.03125 C 2.109375 -0.207031 2.109375 -0.453125 2.171875 -0.703125 C 2.242188 -0.960938 2.335938 -1.195312 2.453125 -1.40625 C 2.566406 -1.613281 2.738281 -1.789062 2.96875 -1.9375 C 3.195312 -2.082031 3.429688 -2.175781 3.671875 -2.21875 C 4.179688 -2.332031 4.65625 -2.242188 5.09375 -1.953125 L 5.359375 -1.78125 C 5.785156 -1.5 6.066406 -1.085938 6.203125 -0.546875 Z M 6.203125 -0.546875 "/></g></g><g clip-rule="nonzero" clip-path="url(#29656af662)"><g style="fill:#000000;fill-opacity:1;"><g transform="translate(104.450561, 37.860306)"><path style="stroke:none" d="M 6.21875 -0.0625 C 6.257812 0.1875 6.238281 0.429688 6.15625 0.671875 C 6.082031 0.910156 5.972656 1.128906 5.828125 1.328125 C 5.691406 1.523438 5.5 1.6875 5.25 1.8125 C 5.007812 1.9375 4.78125 2.023438 4.5625 2.078125 C 4.039062 2.140625 3.570312 2.003906 3.15625 1.671875 L 2.890625 1.46875 C 2.503906 1.164062 2.265625 0.742188 2.171875 0.203125 C 2.128906 -0.046875 2.144531 -0.296875 2.21875 -0.546875 C 2.300781 -0.796875 2.421875 -1.019531 2.578125 -1.21875 C 2.691406 -1.40625 2.867188 -1.5625 3.109375 -1.6875 C 3.347656 -1.820312 3.585938 -1.90625 3.828125 -1.9375 C 4.347656 -2 4.816406 -1.867188 5.234375 -1.546875 L 5.484375 -1.34375 C 5.878906 -1.03125 6.125 -0.601562 6.21875 -0.0625 Z M 6.21875 -0.0625 "/></g></g></g></g></svg>